<svg width="709" height="259" xmlns="http://www.w3.org/2000/svg" xmlns:xlink="http://www.w3.org/1999/xlink" xml:space="preserve" overflow="hidden"><g transform="translate(-240 -45)"><g><g><g><g><path d="M331.794 184.595C326.301 183.568 324.497 183.041 321.668 181.626 317.285 179.435 314.427 176.661 312.485 172.694 310.987 169.586 310.405 166.923 310.405 163.039 310.405 157.214 311.986 153.524 316.258 149.224 319.476 145.978 321.89 144.369 329.741 140.208 338.785 135.408 341.559 133.466 343.889 130.304 345.415 128.251 346.136 126.309 346.497 123.202 347.052 118.791 346.108 114.602 343.972 111.745 341.753 108.748 338.202 107.139 333.319 106.89 323.748 106.39 318.422 110.357 315.981 119.79L315.675 120.955 312.652 120.955 309.6 120.955 309.6 112.799C309.6 105.253 309.628 104.615 310.099 104.476 312.901 103.672 320.17 102.312 324.442 101.813 330.101 101.175 337.924 101.591 342.474 102.812 349.105 104.587 354.459 109.47 356.345 115.49 358.259 121.482 357.926 128.945 355.568 133.577 352.961 138.765 348.189 142.76 338.452 147.892 329.019 152.858 326.301 154.717 323.97 157.768 321.834 160.626 321.418 162.041 321.39 166.59 321.39 170.391 321.418 170.53 322.278 172.333 324.442 176.966 328.77 179.324 334.984 179.296 342.918 179.268 347.079 176.05 349.576 168.033L350.242 165.897 353.21 165.897 356.206 165.897 356.206 174.053 356.206 182.209 353.099 182.93C347.468 184.234 344.943 184.512 338.59 184.623 335.234 184.678 332.182 184.678 331.794 184.595Z" fill="#000000" fill-rule="nonzero" fill-opacity="1" transform="matrix(1.0021 0 0 -1 240 304)"/><path d="M668.081 184.317C663.975 183.624 659.592 181.848 656.097 179.49 648.329 174.219 643.197 164.482 641.532 151.887 640.95 147.615 640.894 138.183 641.366 133.716 642.614 122.647 646.193 114.269 652.019 108.832 657.345 103.866 664.003 101.535 672.881 101.535 691.218 101.535 702.87 112.799 705.894 133.466 706.143 135.048 706.393 138.793 706.504 141.761 707.197 164.51 699.596 179.102 684.726 183.402 680.149 184.734 672.908 185.122 668.081 184.317ZM677.042 179.074C684.81 177.437 689.97 170.807 692.522 159.211 693.77 153.552 693.964 151.332 693.964 142.039 693.964 132.468 693.743 130.193 692.161 124.062 689.692 114.519 684.726 108.665 677.819 107.223 671.965 105.974 666.334 107.611 662.2 111.772 659.953 114.075 658.788 115.823 657.345 119.207 651.88 131.885 652.046 157.602 657.623 168.699 660.064 173.498 663.975 177.215 667.998 178.519 671.022 179.49 674.101 179.685 677.042 179.074Z" fill="#000000" fill-rule="nonzero" fill-opacity="1" transform="matrix(1.0021 0 0 -1 240 304)"/><path d="M254.005 184.206C237.637 182.348 224.654 171.861 219.466 156.326 217.552 150.528 216.775 143.121 217.469 137.045 220.105 114.491 239.579 97.9845 261.301 99.871 277.78 101.341 289.654 110.357 293.066 124.09 293.426 125.505 293.787 127.363 293.898 128.251L294.065 129.832 285.908 129.832 277.752 129.832 276.587 127.419C274.506 123.091 270.623 119.928 265.213 118.125 262.716 117.293 262.355 117.237 258.277 117.21 254.532 117.21 253.728 117.293 251.897 117.848 240.19 121.537 233.005 132.717 234.392 145.174 235.695 156.992 243.63 165.065 255.281 166.479 261.357 167.201 267.932 165.314 271.982 161.68 273.702 160.154 276.032 156.853 276.587 155.216L276.92 154.245 285.492 154.245 294.065 154.245 293.898 155.854C293.426 160.043 291.623 164.621 288.766 168.837 287.018 171.445 283.495 175.163 281.026 177.021 278.862 178.658 273.424 181.377 270.317 182.375 265.379 183.985 258.694 184.734 254.005 184.206Z" fill="#000000" fill-rule="nonzero" fill-opacity="1" transform="matrix(1.0021 0 0 -1 240 304)"/><path d="M365.916 173.526 365.916 163.123 368.912 163.123 371.881 163.123 372.935 166.674C374.35 171.417 375.598 173.942 377.54 175.912 379.732 178.159 380.647 178.381 387.333 178.381L392.576 178.381 392.493 145.312C392.41 114.408 392.382 112.133 391.91 110.746 391.023 108.166 389.414 106.806 386.085 105.835L384.503 105.392 384.503 103.866 384.503 102.368 398.235 102.368 411.968 102.368 411.968 103.894 411.968 105.392 410.803 105.697C407.168 106.612 405.532 107.861 404.616 110.413 404.089 111.883 404.061 112.882 403.978 145.174L403.923 178.408 409.665 178.325 415.435 178.242 416.934 177.41C419.985 175.717 422.038 172.111 424.035 164.87L424.535 163.123 427.531 163.123 430.555 163.123 430.555 173.526 430.555 183.929 398.235 183.929 365.916 183.929 365.916 173.526Z" fill="#000000" fill-rule="nonzero" fill-opacity="1" transform="matrix(1.0021 0 0 -1 240 304)"/><path d="M439.765 182.375 439.848 180.822 441.624 180.239C443.926 179.49 445.314 178.186 445.979 176.161 446.423 174.746 446.479 172.555 446.645 148.281 446.812 124.672 446.895 121.704 447.311 119.845 450.307 106.945 458.047 101.535 473.583 101.535 483.292 101.535 489.534 103.616 494.361 108.471 497.801 111.883 499.688 115.767 500.936 121.926 501.325 123.812 501.408 127.835 501.546 149.668 501.713 173.248 501.768 175.301 502.24 176.494 503.017 178.519 504.126 179.352 508.177 180.739 508.371 180.822 508.51 181.405 508.51 182.403L508.51 183.929 496.581 183.929 484.652 183.929 484.652 182.403C484.652 181.405 484.79 180.822 485.012 180.739 489.118 179.296 490.2 178.519 490.949 176.355 491.421 174.996 491.448 173.332 491.448 149.252 491.448 125.921 491.393 123.341 490.949 120.844 489.201 111.023 483.542 106.418 473.832 106.917 466.675 107.25 462.597 109.581 460.239 114.657 458.103 119.207 458.158 118.319 458.158 148.281 458.158 169.531 458.241 175.163 458.519 176.134 459.101 178.02 460.599 179.435 462.874 180.184L464.816 180.85 464.816 182.32 464.816 183.79 452.249 183.874 439.682 183.929 439.765 182.375Z" fill="#000000" fill-rule="nonzero" fill-opacity="1" transform="matrix(1.0021 0 0 -1 240 304)"/><path d="M520.772 182.403 520.855 180.822 522.547 180.212C525.876 178.991 526.903 177.687 527.402 173.997 527.568 172.61 527.652 161.236 527.596 141.623 527.513 113.659 527.457 111.273 527.014 109.941 526.403 108.11 524.905 106.806 522.575 106.03L520.855 105.475 520.772 103.921 520.688 102.368 533.81 102.368C551.454 102.368 556.947 102.784 562.884 104.504 573.87 107.666 581.582 115.628 584.966 127.308 587.99 137.711 587.907 152.442 584.8 161.763 583.108 166.895 580.75 170.752 577.254 174.108 573.176 178.048 568.127 180.794 562.301 182.237 556.919 183.596 554.866 183.707 537.278 183.846L520.688 183.985 520.772 182.403ZM553.174 177.937C565.686 175.579 572.843 166.618 574.535 151.221 575.063 146.644 574.757 135.88 574.036 131.774 571.844 119.595 566.213 112.105 557.197 109.303 553.923 108.305 550.4 107.916 544.519 107.916L539.026 107.916 539.026 143.148 539.026 178.353 541.467 178.464C545.24 178.658 550.816 178.408 553.174 177.937Z" fill="#000000" fill-rule="nonzero" fill-opacity="1" transform="matrix(1.0021 0 0 -1 240 304)"/><path d="M601.501 182.375 601.584 180.822 603.276 180.212C606.605 178.991 607.632 177.687 608.131 173.997 608.297 172.61 608.381 161.292 608.325 141.623 608.242 113.992 608.186 111.273 607.77 109.997 607.077 107.944 605.495 106.668 602.694 105.835 601.584 105.503 601.584 105.503 601.501 103.921L601.417 102.368 614.068 102.368 626.69 102.368 626.69 103.866 626.69 105.364 624.97 105.946C621.752 107.028 620.643 108.277 620.032 111.384 619.561 113.936 619.783 174.802 620.282 176.272 620.865 178.048 622.418 179.463 624.61 180.184L626.552 180.85 626.635 182.375 626.718 183.929 614.068 183.929 601.417 183.929 601.501 182.375Z" fill="#000000" fill-rule="nonzero" fill-opacity="1" transform="matrix(1.0021 0 0 -1 240 304)"/><path d="M26.9374 183.069C17.4497 181.848 9.46 174.608 7.18516 165.203 6.3529 161.819 6.3529 156.992 7.18516 153.829 9.04387 146.81 14.0652 140.79 20.5013 137.961 24.4129 136.241 25.2452 136.13 37.3129 135.963L48.4097 135.797 49.9355 135.075C52.9039 133.661 55.04 130.637 55.3729 127.363 55.7613 123.646 53.5142 119.706 49.991 117.986L48.4097 117.21 30.1832 117.071 11.929 116.932 7.18516 110.274C4.57742 106.612 1.99742 103.006 1.47032 102.285L0.499355 100.953 25.8277 101.036C54.6516 101.147 52.3768 100.953 57.8419 103.616 67.1077 108.11 72.5729 117.376 72.0458 127.752 71.4632 138.904 64.2781 148.003 53.4587 151.249 51.6 151.804 50.6568 151.859 40.2258 151.998L28.9903 152.165 27.409 152.941C25.7445 153.746 24.4129 155.161 23.7194 156.853 23.22 158.046 23.1923 160.57 23.6361 162.124 24.08 163.65 26.66 166.23 28.1858 166.674 29.0458 166.923 34.3168 167.006 48.5206 167.006L67.6903 167.006 67.6903 175.19 67.6903 183.374 48.2155 183.346C37.4794 183.319 27.9084 183.208 26.9374 183.069Z" fill="#000000" fill-rule="nonzero" fill-opacity="1" transform="matrix(1.0021 0 0 -1 240 304)"/><path d="M81.2839 142.455 81.2839 102.09 90.0226 102.09 98.7613 102.09 98.7613 118.181 98.7613 134.271 114.491 134.326 130.248 134.41 133.161 141.9 136.102 149.39 117.432 149.474 98.7613 149.529 98.7613 158.129 98.7613 166.729 120.899 166.785 143.01 166.868 146.117 174.497C147.837 178.686 149.252 182.292 149.252 182.486 149.252 182.736 142.261 182.819 115.268 182.819L81.2839 182.819 81.2839 142.455Z" fill="#000000" fill-rule="nonzero" fill-opacity="1" transform="matrix(1.0021 0 0 -1 240 304)"/><path d="M152.081 143.01C143.481 121.121 136.379 102.95 136.296 102.645 136.157 102.09 136.241 102.09 145.423 102.09L154.717 102.09 166.035 130.665C172.666 147.365 177.465 159.1 177.576 158.906 177.687 158.684 182.708 146.089 188.756 130.859 194.776 115.656 199.853 102.95 200.019 102.645 200.297 102.118 200.602 102.09 209.452 102.09 216.581 102.09 218.606 102.174 218.606 102.451 218.606 102.617 211.532 120.788 202.877 142.815L187.119 182.819 177.41 182.819 167.7 182.792 152.081 143.01Z" fill="#000000" fill-rule="nonzero" fill-opacity="1" transform="matrix(1.0021 0 0 -1 240 304)"/><path d="M297.56 101.397C297.477 101.175 297.532 100.981 297.671 100.981 297.837 100.981 297.948 101.175 297.948 101.397 297.948 101.619 297.893 101.813 297.837 101.813 297.782 101.813 297.671 101.619 297.56 101.397Z" fill="#000000" fill-rule="nonzero" fill-opacity="1" transform="matrix(1.0021 0 0 -1 240 304)"/></g></g></g></g></g></svg>